# xmcd
#
# Track frame offsets:
# 150
# 13045
# 24742
# 35997
# 46722
# 58590
# 68927
# 84860
# 98760
# 114715
# 128735
# 141340
# 153072
# 164447
# 176180
# 187852
# 202370
# 215547
# 228105
# 241325
#
# Disc length: 3398 seconds
#
#
# Revision: 0
# Processed by: cddbd v1.5.1PL2 Copyright (c) Steve Scherf et al.
# Submitted via: FreeRIP 2.944 
#
DISCID=160d4414
DTITLE=Zé Bettio - Raízes Sertanejas
DYEAR=1900
DGENRE=Sertanejo
TTITLE0=balança mas não cai
TTITLE1=baile da tuia
TTITLE2=machucadinho
TTITLE3=festa da roça
TTITLE4=feijão queimado
TTITLE5=o sanfoneiro só tocava isso
TTITLE6=saudades de matão
TTITLE7=saudades de ouro preto
TTITLE8=chalana
TTITLE9=rabo de saia
TTITLE10=a charanga do zé
TTITLE11=zé bettio no forró
TTITLE12=festa nordestina
TTITLE13=forró na paulicéia
TTITLE14=vassourinha
TTITLE15=fim da picada
TTITLE16=começo de festa
TTITLE17=pena verde
TTITLE18=início de baile
TTITLE19=fim de baile
EXTD=
EXTT0=
EXTT1=
EXTT2=
EXTT3=
EXTT4=
EXTT5=
EXTT6=
EXTT7=
EXTT8=
EXTT9=
EXTT10=
EXTT11=
EXTT12=
EXTT13=
EXTT14=
EXTT15=
EXTT16=
EXTT17=
EXTT18=
EXTT19=
PLAYORDER=
